<?xml version="1.0" encoding="utf-8"?>
<!-- Generator: Adobe Illustrator 19.1.0, SVG Export Plug-In . SVG Version: 6.00 Build 0)  -->
<svg version="1.1" id="Layer_1" xmlns="http://www.w3.org/2000/svg" xmlns:xlink="http://www.w3.org/1999/xlink" x="0px" y="0px"
	 viewBox="0 0 144 144" style="enable-background:new 0 0 144 144;" xml:space="preserve">
<path d="M133.34,98.84c0.28-0.36,0.48-0.79,0.57-1.26c3.43-7.93,5.34-16.66,5.34-25.83C139.25,35.77,109.98,6.5,74,6.5
	c-1.95,0-3.88,0.1-5.79,0.27c-0.32-0.02-0.64-0.01-0.96,0.08c-32.82,3.39-58.5,31.2-58.5,64.9C8.75,107.73,38.02,137,74,137
	c7.34,0,14.39-1.24,20.98-3.48c0.29-0.05,0.56-0.15,0.82-0.28c6.9-2.45,13.26-6.04,18.87-10.53c0.43-0.2,0.8-0.5,1.09-0.88
	C123.22,115.61,129.25,107.76,133.34,98.84z M98.2,125.81c2.21-20.66-5.58-41.34-21.06-55.37c1.6-6.88,4.4-13.34,8.19-19.1
	c21.77,18.41,29.95,47.83,25.43,66.83C106.93,121.21,102.71,123.78,98.2,125.81z M26.3,106.85c-3.71-5.03-6.64-10.67-8.62-16.73
	c12.06,8.39,27.75,12.17,42.92,12.17c9.98,0,19.71-1.65,28.05-4.66c1.91,4.99,3.14,10.24,3.65,15.59
	C70.27,122.76,42.72,117.37,26.3,106.85z M53.88,78.62c6.67,0,13.38-1.04,19.89-3.12c5.16,4.83,9.36,10.48,12.46,16.65
	c-26.98,9.7-56.73,1.94-70.83-11.61c-0.43-2.87-0.65-5.79-0.65-8.78c0-1.99,0.1-3.95,0.29-5.89C26.39,74.22,40.05,78.62,53.88,78.62
	z M108.94,23.94c-19.22,8.34-33.42,25.54-37.86,46.12c-6.76,2.06-13.75,2.86-20.64,2.46c5.12-28.41,26.99-50.41,45.87-55.64
	C100.82,18.72,105.06,21.1,108.94,23.94z M88.88,46.49c3.37-4.14,7.29-7.83,11.66-10.95c19.39,14.38,28.45,40.93,27.47,60.51
	c-2.57,5.69-6,10.92-10.15,15.49C119.83,87.31,105.91,60.85,88.88,46.49z M133.25,71.75c0,2.58-0.18,5.11-0.5,7.6
	c-3.19-17.08-12.09-35.41-26.82-47.22c2.64-1.48,5.4-2.77,8.28-3.84C125.91,39.11,133.25,54.59,133.25,71.75z M86.94,13.94
	C64.65,24.16,48.43,49.73,44.46,71.87c-5.27-0.84-10.42-2.4-15.31-4.63c2.81-24.29,22.15-45.96,39.55-54.49
	c1.75-0.16,3.51-0.25,5.29-0.25C78.45,12.5,82.78,13.01,86.94,13.94z M51.55,16.93C38.07,28.21,26.41,45.24,23.5,64.28
	c-2.57-1.52-5.04-3.25-7.38-5.18C20.3,39.95,33.77,24.24,51.55,16.93z M38.77,119.35c8.68,2.99,18.43,4.78,28.28,4.78
	c8.66,0,17.39-1.38,25.52-4.54c-0.04,2.88-0.28,5.77-0.74,8.65C86.2,130.03,80.21,131,74,131C60.81,131,48.62,126.67,38.77,119.35z"
	/>
</svg>
