<?xml version="1.0" encoding="UTF-8"?>
<!DOCTYPE svg PUBLIC "-//W3C//DTD SVG 1.1//EN" "http://www.w3.org/Graphics/SVG/1.1/DTD/svg11.dtd">
<!-- Creator: CorelDRAW X6 -->
<svg xmlns="http://www.w3.org/2000/svg" xml:space="preserve" width="14.6858in" height="14.6858in" version="1.1" shape-rendering="geometricPrecision" text-rendering="geometricPrecision" image-rendering="optimizeQuality" fill-rule="evenodd" clip-rule="evenodd"
viewBox="0 0 1780 1780"
 xmlns:xlink="http://www.w3.org/1999/xlink">
 <g id="Layer_x0020_1">
  <metadata id="CorelCorpID_0Corel-Layer"/>
  <g id="_1052497472">
   <path fill="#00559E" d="M1780 890c0,492 -398,890 -890,890 -492,0 -890,-398 -890,-890 0,-492 398,-890 890,-890 492,0 890,398 890,890z"/>
   <path fill="#CED7DD" d="M1599 1058c-22,97 -65,186 -122,264 4,-33 6,-65 6,-98 -2,-268 -145,-489 -349,-649 50,-39 107,-69 170,-89l16 13c161,135 259,349 279,559zm-258 405c-64,50 -136,90 -214,116 89,-250 36,-520 -178,-700 18,-92 57,-171 111,-234 186,142 321,338 323,579 0,82 -15,162 -42,239zm-335 147c-38,6 -76,9 -116,9 -68,0 -134,-9 -196,-27 112,11 226,2 332,-28 -6,15 -13,30 -20,46zm-653 -227c-64,-69 -114,-151 -147,-241 39,34 81,64 126,90 231,131 489,119 729,26 10,61 9,125 -2,189l-17 6c-219,80 -485,45 -686,-69l-3 -1zm-190 -435c-1,-19 -2,-38 -2,-58 0,-59 7,-115 20,-170 81,105 185,182 301,224l0 5 18 2c117,38 246,41 376,-2 75,60 127,133 157,211 -213,86 -445,102 -651,-15 -87,-49 -160,-117 -219,-197zm57 -346c42,-98 105,-184 183,-254 -68,90 -121,192 -151,300 -11,-15 -22,-30 -32,-46zm524 -426c47,-10 96,-15 146,-15 44,0 88,4 130,12 -49,16 -96,37 -140,63 -225,132 -344,357 -385,606 -58,-24 -112,-59 -161,-104 41,-229 204,-440 402,-557l8 -5zm462 57c69,33 132,77 187,129 -267,40 -484,216 -541,489 -89,31 -177,36 -260,20 34,-224 136,-429 338,-548 85,-49 179,-79 276,-90zm269 222c49,66 87,140 112,220 -43,-80 -97,-154 -162,-216 17,-2 33,-3 50,-4z"/>
  </g>
 </g>
</svg>
